<?xml version="1.0" encoding="UTF-8"?>
<svg xmlns="http://www.w3.org/2000/svg" version="1.1" viewBox="0 0 1024 1024">
  <!-- Generator: Adobe Illustrator 29.1.0, SVG Export Plug-In . SVG Version: 2.1.0 Build 142)  -->
  <defs>
    <style>
      .st0 {
        fill: #18bcf2;
      }

      .st1 {
        fill: #fff;
      }
    </style>
  </defs>
  <g id="Layer_1">
    <rect class="st0" x="-1365.4" width="1024" height="1024"/>
  </g>
  <g id="Layer_2">
    <g>
      <path class="st1" d="M745.4,433.1h0l-210.8-210.8c-12.4-12.4-32.9-12.4-45.2,0l-210.8,210.8c-12.4,12.4-22.6,37.1-22.6,54.6v192c0,17.5,14.5,32,32,32h210.1l-80.9-130.3-53.1,85.8h-36.9l69.8-108.6-65.1-100.9h38.2l48.6,79.4,48.4-79.4h36.9l-65.3,102,98.3,152.1v-254.1h58.9c18.1,0,33.1,2.1,44.8,6.6s20.7,11.1,26.5,20.1c5.8,9,8.7,20.3,8.7,34.1s-1.9,19.2-5.8,26.5c-3.8,7.3-8.7,13.4-15.1,18.1-6.2,4.7-12.8,8.5-19.8,11.3l59.5,92.8h-38.8l-50.8-83.8h-33.5v128.4h164.5c17.5,0,32-14.3,32-32v-192c0-17.5-10.2-42.2-22.6-54.6h-.2Z"/>
      <path class="st1" d="M640.9,519.5c0-11.9-3.8-20.7-11.5-25.6-7.7-5.1-19.4-7.7-35.4-7.7h-22.2v68.3h23.9c15.8,0,27.3-3,34.6-9,7.3-6,10.9-14.7,10.9-26.2l-.2.2Z"/>
    </g>
  </g>
</svg>