<?xml version="1.0" encoding="UTF-8"?>
<svg xmlns="http://www.w3.org/2000/svg" version="1.1" xmlns:xlink="http://www.w3.org/1999/xlink" viewBox="0 0 1024 1024">
  <!-- Generator: Adobe Illustrator 29.2.1, SVG Export Plug-In . SVG Version: 2.1.0 Build 116)  -->
  <defs>
    <style>
      .st0 {
        fill: #18bcf2;
      }

      .st1 {
        fill: url(#radial-gradient4);
      }

      .st1, .st2 {
        opacity: .5;
      }

      .st3 {
        fill: url(#radial-gradient1);
      }

      .st3, .st4, .st5, .st6, .st7, .st8 {
        opacity: .4;
      }

      .st9 {
        fill: #fff;
      }

      .st4 {
        fill: url(#radial-gradient6);
      }

      .st5 {
        fill: url(#radial-gradient3);
      }

      .st6 {
        fill: url(#radial-gradient5);
      }

      .st7 {
        fill: url(#radial-gradient2);
      }

      .st2 {
        fill: url(#radial-gradient);
      }

      .st8 {
        fill: url(#radial-gradient7);
      }
    </style>
    <radialGradient id="radial-gradient" cx="502.6" cy="607.5" fx="502.6" fy="607.5" r="265.6" gradientTransform="translate(0 281.5) scale(1 .5)" gradientUnits="userSpaceOnUse">
      <stop offset="0" stop-color="#fff" stop-opacity=".9"/>
      <stop offset="1" stop-color="#fff"/>
    </radialGradient>
    <radialGradient id="radial-gradient1" cx="509.1" cy="595.4" fx="509.1" fy="595.4" r="132.8" gradientTransform="translate(0 233.7) scale(1 .6)" gradientUnits="userSpaceOnUse">
      <stop offset="0" stop-color="#fff" stop-opacity=".5"/>
      <stop offset="1" stop-color="#fff"/>
    </radialGradient>
    <radialGradient id="radial-gradient2" cx="502.6" cy="698.3" fx="502.6" fy="698.3" r="238.7" gradientTransform="translate(0 274.1) scale(1 .6)" xlink:href="#radial-gradient1"/>
    <radialGradient id="radial-gradient3" cx="503" cy="636.9" fx="503" fy="636.9" r="217.1" gradientTransform="translate(0 250) scale(1 .6)" gradientUnits="userSpaceOnUse">
      <stop offset="0" stop-color="#fff" stop-opacity="0"/>
      <stop offset="1" stop-color="#fff"/>
    </radialGradient>
    <radialGradient id="radial-gradient4" cx="2590.6" fx="2590.6" r="265.6" xlink:href="#radial-gradient"/>
    <radialGradient id="radial-gradient5" cx="2597.1" fx="2597.1" xlink:href="#radial-gradient1"/>
    <radialGradient id="radial-gradient6" cx="2590.6" cy="698.3" fx="2590.6" fy="698.3" r="238.7" gradientTransform="translate(0 274.1) scale(1 .6)" xlink:href="#radial-gradient1"/>
    <radialGradient id="radial-gradient7" cx="2591" fx="2591" xlink:href="#radial-gradient3"/>
  </defs>
  <g id="Layer_1">
    <rect id="BG" class="st0" x="-1044" width="1024" height="1024"/>
  </g>
  <g id="Layer_2">
    <g id="Layers">
      <path class="st2" d="M816.2,589.4l-103.4-61.4,1.7,61.9c0,11.3-11.1,20.4-24.7,20.4h-358.2c-13.6.1-24.7-9-24.7-20.3l.5-65.3-113.8,64.7c-34,16.1-34,42.1,0,58.2l249.7,117.9c34,16.1,89.2,16.1,123.2,0l249.7-117.9c34-16.1,34-42.1,0-58.2Z"/>
      <g>
        <path class="st3" d="M307.1,591.9c1.2,10.4,11.7,18.5,24.6,18.5h358.2c12-.1,21.9-7.1,24.2-16.4l-5.6-3.4-400.9,1.1-.4.2Z"/>
        <path class="st7" d="M816.2,656.4l-8.1-5-241.6,114c-34,16.1-89.2,16.1-123.2,0l-241.2-113.9-8.4,4.8c-34,16.1-34,42.1,0,58.2l249.7,117.9c34,16.1,89.2,16.1,123.2,0l249.7-117.9c34-16.1,34-42.1,0-58.2Z"/>
      </g>
      <path class="st5" d="M443.4,765.5c34,16.1,89.2,16.1,123.2,0l241.6-114-94.1-57.5c-2.3,9.3-12.3,16.3-24.2,16.3h-358.2c-12.9.1-23.4-8-24.6-18.4l-104.9,59.7,241.2,113.9Z"/>
    </g>
  </g>
  <g id="Layer_3">
    <path id="House" class="st9" d="M1540.8,172l-249.8,220.3c-15.6,13.7-5.9,39.5,14.9,39.5h35v165.5c0,12.5,10.1,22.5,22.5,22.5h386c12.5,0,22.5-10.1,22.5-22.5v-165.5h34.2c20.8,0,30.5-25.7,14.9-39.5l-250.4-220.3c-8.5-7.5-21.3-7.5-29.8,0ZM1697,567.4h-86.2v-104.9c0-10-8.1-18-18-18h-73c-10,0-18,8.1-18,18v104.9h-87.3c-12.5,0-22.5-10.1-22.5-22.5v-164.1l164.2-147.7,163.5,147.7v164.1c0,12.5-10.1,22.5-22.5,22.5Z"/>
  </g>
  <g id="Layer_4">
    <circle id="BG1" data-name="BG" class="st0" cx="2600" cy="512" r="512"/>
    <g>
      <g id="Layers1" data-name="Layers">
        <path class="st1" d="M2904.2,589.4l-103.4-61.4,1.7,61.9c0,11.3-11.1,20.4-24.7,20.4h-358.2c-13.6.1-24.7-9-24.7-20.3l.5-65.3-113.8,64.7c-34,16.1-34,42.1,0,58.2l249.7,117.9c34,16.1,89.2,16.1,123.2,0l249.7-117.9c34-16.1,34-42.1,0-58.2Z"/>
        <g>
          <path class="st6" d="M2395.1,591.9c1.2,10.4,11.7,18.5,24.6,18.5h358.2c12-.1,21.9-7.1,24.2-16.4l-5.6-3.4-400.9,1.1-.4.2Z"/>
          <path class="st4" d="M2904.2,656.4l-8.1-5-241.6,114c-34,16.1-89.2,16.1-123.2,0l-241.2-113.9-8.4,4.8c-34,16.1-34,42.1,0,58.2l249.7,117.9c34,16.1,89.2,16.1,123.2,0l249.7-117.9c34-16.1,34-42.1,0-58.2Z"/>
        </g>
        <path class="st8" d="M2531.4,765.5c34,16.1,89.2,16.1,123.2,0l241.6-114-94.1-57.5c-2.3,9.3-12.3,16.3-24.2,16.3h-358.2c-12.9.1-23.4-8-24.6-18.4l-104.9,59.7,241.2,113.9Z"/>
      </g>
      <path id="House1" data-name="House" class="st9" d="M2584.8,172l-249.8,220.3c-15.6,13.7-5.9,39.5,14.9,39.5h35v165.5c0,12.5,10.1,22.5,22.5,22.5h386c12.5,0,22.5-10.1,22.5-22.5v-165.5h34.2c20.8,0,30.5-25.7,14.9-39.5l-250.4-220.3c-8.5-7.5-21.3-7.5-29.8,0ZM2741,567.4h-86.2v-104.9c0-10-8.1-18-18-18h-73c-10,0-18,8.1-18,18v104.9h-87.3c-12.5,0-22.5-10.1-22.5-22.5v-164.1l164.2-147.7,163.5,147.7v164.1c0,12.5-10.1,22.5-22.5,22.5Z"/>
    </g>
  </g>
</svg>