<?xml version="1.0" encoding="UTF-8"?>
<svg id="Layer_1" xmlns="http://www.w3.org/2000/svg" version="1.1" viewBox="0 0 480 480">
  <!-- Generator: Adobe Illustrator 29.1.0, SVG Export Plug-In . SVG Version: 2.1.0 Build 142)  -->
  <defs>
    <style>
      .st0 {
        fill: #18bcf2;
      }

      .st1 {
        fill: #fff;
      }
    </style>
  </defs>
  <circle class="st0" cx="240" cy="240" r="240"/>
  <g>
    <path class="st1" d="M349.4,203h0s-98.8-98.8-98.8-98.8c-5.8-5.8-15.4-5.8-21.2,0l-98.8,98.8c-5.8,5.8-10.6,17.4-10.6,25.6v90c0,8.2,6.8,15,15,15h98.5s-37.9-61.1-37.9-61.1l-24.9,40.2h-17.3l32.7-50.9-30.5-47.3h17.9l22.8,37.2,22.7-37.2h17.3l-30.6,47.8,46.1,71.3v-119.1h27.6c8.5,0,15.5,1,21,3.1,5.5,2.1,9.7,5.2,12.4,9.4,2.7,4.2,4.1,9.5,4.1,16s-.9,9-2.7,12.4c-1.8,3.4-4.1,6.3-7.1,8.5-2.9,2.2-6,4-9.3,5.3l27.9,43.5h-18.2l-23.8-39.3h-15.7v60.2h77.1c8.2,0,15-6.7,15-15v-90c0-8.2-4.8-19.8-10.6-25.6Z"/>
    <path class="st1" d="M300.4,243.5c0-5.6-1.8-9.7-5.4-12-3.6-2.4-9.1-3.6-16.6-3.6h-10.4v32h11.2c7.4,0,12.8-1.4,16.2-4.2,3.4-2.8,5.1-6.9,5.1-12.3Z"/>
  </g>
</svg>